<!-- Generator: Adobe Illustrator 19.0.1, SVG Export Plug-In  -->
<svg version="1.1"
	 xmlns="http://www.w3.org/2000/svg" xmlns:xlink="http://www.w3.org/1999/xlink" xmlns:a="http://ns.adobe.com/AdobeSVGViewerExtensions/3.0/"
	 x="0px" y="0px" width="146px" height="114.714px" viewBox="0 0 146 114.714" style="enable-background:new 0 0 146 114.714;"
	 xml:space="preserve">
<style type="text/css">
	.st0{fill:#FFFFFF;}
</style>
<defs>
</defs>
<g>
	<path class="st0" d="M14.013,35.36c1.847,1.303,7.414,5.174,16.702,11.61c9.288,6.436,16.403,11.392,21.346,14.867
		c0.543,0.381,1.697,1.209,3.462,2.485c1.765,1.277,3.232,2.31,4.399,3.097c1.168,0.787,2.58,1.67,4.237,2.647
		c1.657,0.977,3.219,1.711,4.685,2.198c1.467,0.49,2.825,0.733,4.074,0.733H73h0.082c1.249,0,2.607-0.243,4.074-0.733
		c1.466-0.487,3.029-1.222,4.685-2.198c1.656-0.978,3.068-1.86,4.236-2.647s2.634-1.82,4.399-3.097s2.92-2.104,3.463-2.485
		c4.996-3.476,17.707-12.302,38.129-26.479c3.965-2.769,7.277-6.11,9.939-10.021c2.663-3.909,3.993-8.01,3.993-12.301
		c0-3.585-1.291-6.654-3.871-9.207S136.493,0,132.964,0H13.035c-4.182,0-7.4,1.412-9.654,4.236C1.127,7.061,0,10.592,0,14.828
		c0,3.422,1.494,7.13,4.481,11.122S10.646,33.079,14.013,35.36z"/>
	<path class="st0" d="M137.852,44.077c-17.814,12.057-31.34,21.427-40.572,28.108c-3.096,2.281-5.608,4.061-7.537,5.336
		c-1.928,1.277-4.494,2.58-7.699,3.911c-3.204,1.331-6.191,1.996-8.961,1.996H73h-0.082c-2.77,0-5.758-0.665-8.962-1.996
		s-5.771-2.634-7.699-3.911c-1.928-1.275-4.44-3.055-7.536-5.336c-7.333-5.377-20.83-14.747-40.492-28.108
		C5.133,42.014,2.39,39.65,0,36.989v64.688c0,3.586,1.276,6.654,3.829,9.207c2.553,2.554,5.622,3.83,9.207,3.83h119.929
		c3.584,0,6.653-1.276,9.206-3.83c2.554-2.554,3.829-5.621,3.829-9.207V36.989C143.664,39.595,140.949,41.959,137.852,44.077z"/>
</g>
</svg>