<!-- Generator: Adobe Illustrator 19.0.1, SVG Export Plug-In  -->
<svg version="1.1"
	 xmlns="http://www.w3.org/2000/svg" xmlns:xlink="http://www.w3.org/1999/xlink" xmlns:a="http://ns.adobe.com/AdobeSVGViewerExtensions/3.0/"
	 x="0px" y="0px" width="83.428px" height="125.143px" viewBox="0 0 83.428 125.143"
	 style="enable-background:new 0 0 83.428 125.143;" xml:space="preserve">
<style type="text/css">
	.st0{fill:#FFFFFF;}
</style>
<defs>
</defs>
<path class="st0" d="M71.207,12.221C63.06,4.073,53.229,0,41.714,0S20.368,4.074,12.221,12.221S0,30.199,0,41.714
	c0,5.921,0.896,10.782,2.688,14.584l29.738,63.061c0.815,1.792,2.078,3.204,3.789,4.235c1.711,1.032,3.544,1.549,5.5,1.549
	c1.955,0,3.789-0.517,5.5-1.549c1.711-1.031,3-2.443,3.869-4.235l29.655-63.061c1.793-3.802,2.689-8.663,2.689-14.584
	C83.429,30.199,79.355,20.369,71.207,12.221z M56.46,56.461c-4.073,4.073-8.988,6.11-14.746,6.11s-10.673-2.037-14.747-6.11
	c-4.074-4.074-6.111-8.989-6.111-14.747c0-5.757,2.037-10.673,6.111-14.746c4.074-4.074,8.99-6.111,14.747-6.111
	c5.758,0,10.673,2.037,14.746,6.111c4.074,4.073,6.111,8.989,6.111,14.746S60.534,52.386,56.46,56.461z"/>
</svg>