<!-- Generator: Adobe Illustrator 19.0.1, SVG Export Plug-In  -->
<svg version="1.1"
	 xmlns="http://www.w3.org/2000/svg" xmlns:xlink="http://www.w3.org/1999/xlink" xmlns:a="http://ns.adobe.com/AdobeSVGViewerExtensions/3.0/"
	 x="0px" y="0px" width="125.223px" height="125.211px" viewBox="0 0 125.223 125.211"
	 style="enable-background:new 0 0 125.223 125.211;" xml:space="preserve">
<style type="text/css">
	.st0{fill:#FFFFFF;}
</style>
<defs>
</defs>
<path class="st0" d="M123.389,73.599L112.147,62.6l11.242-10.999c1.63-1.521,2.173-3.422,1.63-5.703
	c-0.651-2.227-2.063-3.612-4.237-4.155l-15.316-3.911l4.318-15.154c0.651-2.226,0.137-4.128-1.549-5.703
	c-1.574-1.684-3.475-2.2-5.703-1.548L87.38,19.745L83.468,4.428c-0.543-2.227-1.926-3.612-4.153-4.155
	c-2.228-0.598-4.129-0.081-5.703,1.548l-11,11.325L51.613,1.821c-1.575-1.684-3.476-2.2-5.703-1.548
	c-2.227,0.543-3.612,1.928-4.155,4.155l-3.911,15.317L22.69,15.427c-2.227-0.652-4.128-0.136-5.703,1.548
	c-1.684,1.575-2.2,3.476-1.548,5.703l4.318,15.154L4.44,41.743c-2.172,0.543-3.585,1.928-4.236,4.155
	c-0.544,2.281,0,4.182,1.629,5.703L13.076,62.6L1.833,73.599c-1.629,1.521-2.172,3.422-1.629,5.703
	c0.651,2.227,2.064,3.612,4.236,4.155l15.317,3.91l-4.318,15.154c-0.652,2.227-0.136,4.127,1.548,5.703
	c1.575,1.684,3.476,2.199,5.703,1.548l15.154-4.317l3.911,15.316c0.543,2.227,1.928,3.639,4.155,4.236
	c2.281,0.543,4.182,0,5.703-1.629l10.999-11.243l11,11.244c1.086,1.193,2.471,1.791,4.154,1.791c0.381,0,0.896-0.055,1.549-0.162
	c2.227-0.652,3.611-2.064,4.154-4.236l3.91-15.316l15.153,4.317c2.228,0.651,4.129,0.136,5.703-1.548
	c1.685-1.576,2.2-3.477,1.549-5.703l-4.317-15.154l15.315-3.91c2.175-0.543,3.586-1.928,4.237-4.155
	C125.563,77.021,125.02,75.12,123.389,73.599z"/>
</svg>