<!-- Generator: Adobe Illustrator 19.0.1, SVG Export Plug-In  -->
<svg version="1.1"
	 xmlns="http://www.w3.org/2000/svg" xmlns:xlink="http://www.w3.org/1999/xlink" xmlns:a="http://ns.adobe.com/AdobeSVGViewerExtensions/3.0/"
	 x="0px" y="0px" width="125.14px" height="109.5px" viewBox="0 0 125.14 109.5" style="enable-background:new 0 0 125.14 109.5;"
	 xml:space="preserve">
<style type="text/css">
	.st0{fill:#FFFFFF;}
</style>
<defs>
</defs>
<path class="st0" d="M124.411,37.233c-0.488-0.489-1.113-0.733-1.875-0.733H86.688c5.051,0,9.355-1.778,12.914-5.336
	c3.557-3.558,5.336-7.862,5.336-12.914s-1.779-9.356-5.336-12.914C96.043,1.779,91.739,0,86.688,0C80.876,0,76.313,2.091,73,6.273
	L62.571,19.716L52.144,6.273C48.83,2.091,44.268,0,38.456,0c-5.052,0-9.357,1.778-12.914,5.336s-5.336,7.862-5.336,12.914
	s1.778,9.357,5.336,12.914S33.404,36.5,38.456,36.5H2.607c-0.761,0-1.385,0.244-1.874,0.733C0.245,37.722,0,38.347,0,39.107V65.18
	c0,0.76,0.244,1.385,0.733,1.873c0.489,0.488,1.114,0.732,1.874,0.732h7.822v33.895c0,2.173,0.76,4.019,2.281,5.539
	c1.52,1.521,3.367,2.281,5.54,2.281h88.643c2.173,0,4.02-0.76,5.541-2.281c1.52-1.521,2.281-3.367,2.281-5.539V67.785h7.819
	c0.761,0,1.386-0.244,1.875-0.732c0.488-0.488,0.731-1.113,0.731-1.873V39.107C125.141,38.347,124.898,37.722,124.411,37.233z
	 M81.067,12.954c1.412-1.683,3.285-2.525,5.621-2.525c2.173,0,4.02,0.76,5.54,2.281c1.52,1.52,2.28,3.367,2.28,5.54
	s-0.761,4.02-2.28,5.54c-1.521,1.521-3.367,2.281-5.54,2.281H70.881L81.067,12.954z M38.455,26.071c-2.173,0-4.019-0.76-5.542-2.281
	c-1.52-1.52-2.281-3.367-2.281-5.54s0.76-4.019,2.281-5.54s3.368-2.281,5.541-2.281c2.336,0,4.21,0.841,5.622,2.525l10.266,13.117
	H38.455z M75.607,52.143v38.13v4.562c0,1.358-0.489,2.403-1.466,3.137c-0.978,0.734-2.228,1.101-3.747,1.101H54.75
	c-1.521,0-2.77-0.367-3.748-1.101s-1.467-1.778-1.467-3.137v-4.562v-38.13V36.5h26.072C75.607,36.5,75.607,52.143,75.607,52.143z"/>
</svg>