<!-- Generator: Adobe Illustrator 19.0.1, SVG Export Plug-In  -->
<svg version="1.1"
	 xmlns="http://www.w3.org/2000/svg" xmlns:xlink="http://www.w3.org/1999/xlink" xmlns:a="http://ns.adobe.com/AdobeSVGViewerExtensions/3.0/"
	 x="0px" y="0px" width="126.283px" height="96.789px" viewBox="0 0 126.283 96.789"
	 style="enable-background:new 0 0 126.283 96.789;" xml:space="preserve">
<style type="text/css">
	.st0{fill:#FFFFFF;}
</style>
<defs>
</defs>
<path class="st0" d="M124.002,13.361l-11.08-11.08C111.402,0.76,109.554,0,107.382,0c-2.173,0-4.021,0.76-5.541,2.281L48.395,55.809
	L24.442,31.774c-1.521-1.521-3.368-2.281-5.54-2.281c-2.173,0-4.02,0.76-5.541,2.281l-11.08,11.08C0.76,44.375,0,46.222,0,48.395
	c0,2.172,0.76,4.02,2.281,5.54l29.493,29.493l11.081,11.08c1.52,1.521,3.367,2.281,5.54,2.281c2.172,0,4.019-0.761,5.54-2.281
	l11.081-11.08l58.986-58.986c1.52-1.521,2.281-3.368,2.281-5.541C126.284,16.729,125.522,14.882,124.002,13.361z"/>
</svg>